<?xml version="1.0" standalone="no"?>
<!DOCTYPE svg PUBLIC "-//W3C//DTD SVG 20010904//EN"
 "http://www.w3.org/TR/2001/REC-SVG-20010904/DTD/svg10.dtd">
<svg version="1.0" xmlns="http://www.w3.org/2000/svg"
 width="500.000000pt" height="500.000000pt" viewBox="0 0 500.000000 500.000000"
 preserveAspectRatio="xMidYMid meet">
<metadata>
Created by potrace 1.14, written by Peter Selinger 2001-2017
</metadata>
<g transform="translate(0.000000,500.000000) scale(0.100000,-0.100000)"
fill="#000000" stroke="none">
<path d="M2265 4994 c-383 -54 -596 -115 -871 -250 -474 -233 -881 -634 -1123
-1106 -112 -221 -191 -457 -239 -718 -24 -134 -26 -166 -26 -420 0 -254 2
-286 26 -420 95 -520 316 -952 678 -1324 478 -491 1104 -756 1790 -756 683 0
1309 263 1786 752 467 478 714 1082 714 1748 0 686 -265 1312 -756 1790 -372
362 -809 586 -1324 677 -124 22 -179 26 -385 28 -132 2 -253 1 -270 -1z m-425
-924 c120 -23 246 -114 303 -218 71 -131 74 -291 6 -424 -25 -49 -99 -130
-146 -159 l-33 -21 82 -88 83 -89 216 -1 c171 0 225 -3 262 -16 57 -19 131
-89 147 -139 l12 -35 268 0 c148 0 271 4 274 8 3 5 32 109 66 233 33 123 69
235 79 249 69 95 204 102 280 14 26 -29 51 -87 51 -120 0 -8 -127 -494 -146
-556 -5 -16 3 -18 74 -18 95 0 154 -26 183 -80 18 -33 19 -73 19 -795 l0 -760
-28 -50 c-47 -86 -41 -85 -462 -85 -359 0 -367 0 -410 23 -66 32 -90 86 -90
196 l0 85 -30 -47 c-35 -55 -93 -100 -153 -116 -29 -9 -102 -12 -223 -9 -165
3 -182 5 -223 26 -24 13 -55 35 -68 49 l-25 24 -33 -35 c-85 -94 -241 -86
-315 15 l-27 38 -24 -25 c-70 -76 -186 -81 -264 -13 l-34 30 -38 -42 c-46 -51
-86 -69 -153 -69 -61 0 -113 25 -157 74 -42 48 -52 118 -28 201 35 122 104
200 220 251 58 25 65 32 65 56 l0 28 -97 0 c-134 1 -202 34 -232 113 -8 19
-11 253 -11 715 0 775 -5 727 78 786 64 46 145 40 224 -16 14 -10 22 -8 47 16
l30 29 -35 41 c-150 175 -140 441 21 602 106 106 251 151 395 124z"/>
<path d="M1670 3957 c-63 -18 -111 -49 -164 -108 -118 -132 -105 -335 31 -459
166 -151 423 -98 525 109 33 66 33 206 0 272 -73 149 -242 229 -392 186z"/>
<path d="M3573 3328 c-28 -14 -31 -22 -103 -293 -34 -126 -63 -238 -66 -247
-5 -17 -29 -18 -319 -18 l-314 0 -21 -27 c-25 -32 -20 -69 12 -95 18 -16 51
-18 368 -18 317 0 350 2 369 18 16 13 40 89 101 317 44 165 80 306 80 313 0
19 -47 62 -67 61 -10 0 -28 -5 -40 -11z"/>
<path d="M1562 3229 c-64 -32 -110 -79 -140 -146 -15 -34 -17 -81 -17 -473 0
-434 0 -435 23 -482 33 -67 94 -123 158 -148 51 -19 77 -20 364 -20 l309 0 3
-349 c3 -335 4 -351 24 -377 49 -66 59 -69 250 -72 172 -3 176 -3 218 22 51
30 76 75 76 138 0 99 -68 158 -182 158 l-68 0 0 369 c0 365 0 368 -23 401 -12
19 -38 43 -57 54 -32 19 -54 21 -282 24 l-248 3 0 177 0 177 301 -3 c288 -3
302 -2 334 18 88 54 84 184 -7 240 -30 18 -51 20 -268 20 l-235 0 -117 119
c-88 89 -131 126 -179 150 -85 43 -152 43 -237 0z"/>
<path d="M1217 3180 l-27 -21 0 -675 c0 -661 0 -674 20 -694 19 -19 33 -20
465 -20 432 0 446 1 465 20 29 29 30 72 3 103 -15 16 -48 17 -415 17 l-398 0
0 619 c0 575 -1 620 -17 639 -27 32 -64 37 -96 12z"/>
<path d="M2539 2559 c-47 -27 -69 -66 -69 -121 0 -50 26 -98 67 -125 24 -16
56 -18 265 -21 l238 -3 0 -613 c0 -581 1 -614 18 -629 17 -15 57 -17 366 -17
220 0 354 4 367 10 19 10 19 29 19 763 0 572 -3 756 -12 765 -9 9 -160 12
-618 12 -595 0 -606 -1 -641 -21z m1069 -281 c19 -19 14 -56 -9 -68 -13 -7
-78 -10 -185 -8 -133 2 -167 6 -174 18 -14 22 -12 36 6 54 13 13 44 16 183 16
116 0 171 -4 179 -12z m10 -316 c7 -48 -7 -52 -192 -52 -176 0 -196 4 -196 40
0 37 19 41 205 38 179 -3 180 -3 183 -26z m-10 -271 c8 -5 12 -21 10 -37 l-3
-29 -179 -3 c-183 -3 -206 1 -206 37 0 37 19 41 195 41 93 0 176 -4 183 -9z
m0 -293 c18 -18 14 -56 -7 -68 -21 -11 -300 -14 -339 -4 -31 9 -41 53 -17 71
25 18 345 19 363 1z"/>
<path d="M1530 1643 l0 -98 140 0 140 0 0 98 0 97 -140 0 -140 0 0 -97z"/>
<path d="M1514 1515 c-142 -31 -241 -104 -268 -200 -19 -64 -20 -79 -4 -108
18 -34 39 -46 81 -47 28 0 45 7 64 26 22 22 25 32 21 75 -4 36 -1 52 11 63 25
22 88 45 147 55 52 8 54 7 54 -14 0 -13 -7 -28 -15 -35 -17 -14 -20 -72 -5
-99 16 -31 65 -46 101 -30 53 21 72 107 30 134 -6 3 -11 16 -11 29 0 22 2 23
58 14 78 -11 168 -58 163 -84 -16 -85 15 -134 84 -134 43 0 74 22 89 64 11 32
-34 146 -75 187 -45 45 -130 86 -217 105 -83 17 -227 17 -308 -1z"/>
</g>
</svg>
