<svg width="18px" height="18px" class="managers_icon-white" fill="#EEEEEE" version="1.1" xmlns="http://www.w3.org/2000/svg" xmlns:xlink="http://www.w3.org/1999/xlink" viewBox="0 0 436.38 436.381" xml:space="preserve">
    <g stroke-width="0"/>
    <g stroke-linecap="round" stroke-linejoin="round"/>
    <g>
        <g>
            <g>
                <path d="M218.19,232c54.735,0,99.107-51.936,99.107-116c0-88.842-44.371-116-99.107-116c-54.736,0-99.107,27.158-99.107,116 C119.083,180.064,163.455,232,218.19,232z"/>
                <path d="M432.47,408.266l-50-112.636c-1.838-4.142-5.027-7.534-9.045-9.626l-79.62-41.445c-4.809-2.504-10.423-2.947-15.564-1.231 c-5.141,1.715-9.364,5.442-11.707,10.329L232.7,324.266l4.261-38.408c0.133-1.201-0.174-2.412-0.865-3.405l-13.8-19.839 c-0.048-0.068-0.104-0.131-0.154-0.195l11.935-9.061c1.028-0.781,1.633-1.998,1.633-3.291c0-4.834-3.935-8.769-8.77-8.769h-17.498 c-4.835,0-8.769,3.935-8.769,8.769c0,1.293,0.604,2.51,1.633,3.291l11.934,9.061c-0.051,0.064-0.106,0.127-0.154,0.195 l-13.8,19.839c-0.691,0.993-0.999,2.204-0.865,3.405l4.26,38.408l-33.834-70.609c-2.342-4.887-6.566-8.614-11.707-10.329 c-5.14-1.716-10.757-1.271-15.564,1.231l-79.62,41.445c-4.018,2.092-7.207,5.484-9.045,9.626l-50,112.636 c-2.746,6.188-2.177,13.342,1.512,19.018c3.689,5.674,9.999,9.098,16.768,9.098h392c6.769,0,13.078-3.424,16.768-9.1 C434.648,421.607,435.216,414.453,432.47,408.266z"/>
            </g>
        </g>
    </g>
</svg>
