<svg width="18px" height="18px" class="members_icon-white" fill="#EEEEEE" version="1.1" xmlns="http://www.w3.org/2000/svg" xmlns:xlink="http://www.w3.org/1999/xlink" viewBox="0 0 479.293 479.293" xml:space="preserve">
    <g stroke-width="0"/>
    <g stroke-linecap="round" stroke-linejoin="round"/>
    <g>
        <g>
            <g>
                <path d="M179.379,248.994l16.238-8.453c2.654-1.383,5.585-2.212,8.565-2.455c-1.731-1.782-3.425-3.628-5.069-5.551 c-19.569-22.905-30.346-53.182-30.346-85.254c0-42.062,10.536-73.904,31.315-94.637c3.263-3.255,6.76-6.217,10.48-8.897 c-4.008-0.368-8.099-0.548-12.26-0.548c-49.112,0-88.925,24.368-88.925,104.082C109.379,197.163,139.359,238.839,179.379,248.994z "/>
                <path d="M62.872,397.28l44.863-101.063c3.695-8.324,10.18-15.227,18.26-19.434l20.074-10.449 c-5.081-2.75-10.002-5.904-14.721-9.474c-1.383-1.045-3.242-1.2-4.777-0.401l-69.624,36.244 c-4.489,2.336-8.091,6.17-10.144,10.795L1.939,404.561c-3.092,6.966-2.458,14.938,1.696,21.329 c4.154,6.389,11.184,10.204,18.806,10.204h43.775c-0.094-0.144-0.198-0.277-0.292-0.421 C58.446,424.17,57.306,409.818,62.872,397.28z"/>
                <path d="M280.988,251.364c49.11,0,88.924-46.6,88.924-104.082c0-79.714-39.812-104.082-88.924-104.082 c-49.113,0-88.926,24.368-88.926,104.082C192.063,204.765,231.876,251.364,280.988,251.364z"/>
                <path d="M477.354,404.561L432.49,303.498c-2.053-4.625-5.656-8.459-10.146-10.797l-69.624-36.242 c-1.535-0.799-3.396-0.644-4.777,0.4c-19.689,14.895-42.844,22.768-66.955,22.768c-24.112,0-47.265-7.873-66.958-22.768 c-1.383-1.045-3.242-1.201-4.777-0.4l-69.623,36.242c-4.489,2.338-8.091,6.172-10.144,10.797L84.624,404.561 c-3.092,6.966-2.458,14.938,1.696,21.329c4.154,6.389,11.184,10.204,18.806,10.204h351.726c7.622,0,14.652-3.814,18.806-10.204 C479.811,419.499,480.445,411.525,477.354,404.561z"/>
            </g>
        </g>
    </g>
</svg>
