<svg width="18px" height="18px" class="users_icon-white" fill="#FFFFFF" viewBox="0 0 465.888 465.888" version="1.1" xmlns="http://www.w3.org/2000/svg" xmlns:xlink="http://www.w3.org/1999/xlink" xml:space="preserve">
    <g stroke-width="0"/>
    <g stroke-linecap="round" stroke-linejoin="round"/>
    <g>
        <g>
            <g>
                <path d="M464.283,357.994l-37.104-83.588c-1.698-3.826-4.679-6.997-8.392-8.93L361.201,235.5c-1.27-0.662-2.808-0.533-3.951,0.33 c-6.347,4.801-13.132,8.709-20.226,11.703l34.318,17.864c7.806,4.063,14.068,10.729,17.637,18.771l41.229,92.879 c1.017,2.289,1.8,4.643,2.354,7.026h14.762c6.305,0,12.119-3.154,15.555-8.439C466.316,370.349,466.842,363.755,464.283,357.994z"/>
                <path d="M94.545,265.398l34.319-17.864c-7.094-2.996-13.88-6.901-20.228-11.703c-1.144-0.864-2.682-0.991-3.951-0.331 l-57.585,29.978c-3.713,1.933-6.692,5.103-8.39,8.929L1.604,357.994c-2.558,5.762-2.033,12.356,1.402,17.641 c3.436,5.285,9.251,8.439,15.555,8.439h14.763c0.556-2.386,1.339-4.737,2.355-7.028l41.23-92.878 C80.479,276.126,86.742,269.46,94.545,265.398z"/>
                <path d="M160.519,231.186c1.367,0,2.305-0.369,2.953-0.964c-0.772-0.849-1.538-1.707-2.29-2.587 c-18.277-21.393-28.343-49.654-28.343-79.578c0-39.178,9.87-68.89,29.334-88.312c0.215-0.214,0.443-0.411,0.659-0.622 c-40.074,0.393-72.364,20.79-72.364,86.077C90.467,191.37,121.522,229.048,160.519,231.186z"/>
                <path d="M333.05,148.057c0,29.924-10.066,58.186-28.344,79.578c-0.752,0.88-1.519,1.739-2.291,2.588 c0.601,0.734,1.787,0.963,2.952,0.963c38.995-2.136,70.052-39.815,70.052-85.985c0-65.288-32.291-85.685-72.363-86.077 c0.217,0.211,0.443,0.408,0.658,0.622C323.18,79.168,333.05,108.88,333.05,148.057z"/>
                <path d="M232.945,243.712c45.134,0,81.724-42.827,81.724-95.654c0-73.26-36.589-95.654-81.724-95.654 c-45.137,0-81.726,22.395-81.726,95.654C151.219,200.885,187.81,243.712,232.945,243.712z"/>
                <path d="M372.179,291.625c-1.887-4.252-5.198-7.774-9.323-9.923l-63.986-33.308c-1.411-0.735-3.12-0.592-4.391,0.367 c-18.097,13.689-39.375,20.926-61.533,20.926c-22.16,0-43.438-7.235-61.537-20.926c-1.271-0.961-2.979-1.104-4.391-0.367 l-63.985,33.308c-4.126,2.147-7.436,5.671-9.322,9.923l-41.23,92.88c-2.843,6.401-2.26,13.729,1.558,19.602 c3.818,5.872,10.279,9.378,17.284,9.378h323.247c7.004,0,13.466-3.506,17.282-9.378s4.399-13.2,1.56-19.602L372.179,291.625z"/>
            </g>
        </g>
    </g>
</svg>
